<?xml version="1.0" encoding="utf-8" ?>
<svg baseProfile="tiny" height="100%" version="1.2" width="100%" xmlns="http://www.w3.org/2000/svg" xmlns:ev="http://www.w3.org/2001/xml-events" xmlns:xlink="http://www.w3.org/1999/xlink"><defs /><polyline fill="none" points="945,937 945,938" stroke="blue" stroke-width="10" /><polyline fill="none" points="960,935 960,937 959,938 960,938 961,937 961,936" stroke="blue" stroke-width="10" /><polyline fill="none" points="101,923 101,924 99,926 98,925 98,927 100,927 101,926 101,925 102,924 102,923" stroke="blue" stroke-width="10" /><polyline fill="none" points="113,922 112,923 113,923" stroke="blue" stroke-width="10" /><polyline fill="none" points="963,871 963,872" stroke="blue" stroke-width="10" /><polyline fill="none" points="856,854 857,855 858,855 858,854" stroke="blue" stroke-width="10" /><polyline fill="none" points="846,845 846,846 848,846 847,845" stroke="blue" stroke-width="10" /><polyline fill="none" points="848,842 849,842" stroke="blue" stroke-width="10" /><polyline fill="none" points="765,741 765,742 766,742 766,741" stroke="blue" stroke-width="10" /><polyline fill="none" points="719,686 721,688 721,686" stroke="blue" stroke-width="10" /><polyline fill="none" points="712,677 712,678" stroke="blue" stroke-width="10" /><polyline fill="none" points="667,621 667,622 668,622 668,621" stroke="blue" stroke-width="10" /><polyline fill="none" points="644,592 644,593 645,593 646,594" stroke="blue" stroke-width="10" /><polyline fill="none" points="608,551 609,551" stroke="blue" stroke-width="10" /><polyline fill="none" points="700,545 701,545" stroke="blue" stroke-width="10" /><polyline fill="none" points="487,475 487,476 488,475" stroke="blue" stroke-width="10" /><polyline fill="none" points="529,461 529,462 530,461" stroke="blue" stroke-width="10" /><polyline fill="none" points="611,375 612,375" stroke="blue" stroke-width="10" /><polyline fill="none" points="616,370 616,372 617,372 618,371 619,371 619,370" stroke="blue" stroke-width="10" /><polyline fill="none" points="590,347 589,348 590,349" stroke="blue" stroke-width="10" /><polyline fill="none" points="356,265 355,266 355,267 355,266" stroke="blue" stroke-width="10" /><polyline fill="none" points="312,216 311,217 311,218 312,218 313,217" stroke="blue" stroke-width="10" /><polyline fill="none" points="291,191 291,192" stroke="blue" stroke-width="10" /><polyline fill="none" points="289,191 288,192" stroke="blue" stroke-width="10" /><polyline fill="none" points="283,185 284,185" stroke="blue" stroke-width="10" /><polyline fill="none" points="805,172 805,173 806,174 805,173" stroke="blue" stroke-width="10" /><polyline fill="none" points="268,169 269,169" stroke="blue" stroke-width="10" /><polyline fill="none" points="873,143 872,144 872,145 873,146 874,146 875,145 874,144 874,143" stroke="blue" stroke-width="10" /><polyline fill="none" points="866,137 866,138 865,139 864,138 862,138 860,140 858,140 857,139 856,140 855,140 856,141 860,141 862,139 864,139 865,140 865,141 864,142 865,143 865,142 867,140 869,142 869,144 870,143 870,141 869,141 867,139 867,137" stroke="blue" stroke-width="10" /><polyline fill="none" points="199,86 199,87" stroke="blue" stroke-width="10" /><polyline fill="none" points="204,82 202,84 201,84 202,85 204,85 204,84 203,83" stroke="blue" stroke-width="10" /><polyline fill="none" points="245,79 246,79" stroke="blue" stroke-width="10" /><polyline fill="none" points="195,77 195,78 196,77 197,77" stroke="blue" stroke-width="10" /><polyline fill="none" points="203,70 205,72 206,72 205,71 204,71" stroke="blue" stroke-width="10" /><polyline fill="none" points="200,70 200,71 201,71" stroke="blue" stroke-width="10" /><polyline fill="none" points="196,69 196,71 195,72 196,73 197,72 197,69" stroke="blue" stroke-width="10" /><polyline fill="none" points="217,68 217,69 216,70 216,72 215,73 216,74 216,75 213,78 212,78 212,79 210,81 209,80 209,77 208,76 209,75 210,75 211,74 207,74 206,75 205,75 204,76 201,76 203,78 202,79 201,79 200,80 200,81 202,81 204,79 207,79 208,80 208,81 207,82 207,83 208,83 207,82 208,81 209,81 210,82 210,85 209,86 210,87 211,87 212,88 212,90 211,91 212,91 213,92 212,93 212,94 213,94 214,93 216,93 217,94 216,95 217,96 217,97 216,98 218,98 220,100 221,100 222,99 223,100 222,99 223,98 224,98 227,101 227,103 225,105 224,105 222,107 221,107 219,109 218,108 218,106 218,107 217,108 218,108 219,109 218,110 216,110 215,109 214,109 213,108 214,109 215,109 216,110 216,112 218,112 219,113 219,114 218,115 219,116 220,116 220,115 221,114 222,114 223,115 226,115 228,117 228,118 227,119 226,119 226,122 225,123 226,124 227,124 227,121 228,120 232,120 233,121 231,123 230,123 230,124 231,124 233,122 235,122 236,123 237,123 238,124 238,125 237,126 235,126 234,127 234,128 235,128 237,130 238,130 239,131 239,133 241,133 242,134 242,135 241,136 241,137 242,137 245,140 246,140 247,141 247,143 248,144 248,145 247,146 248,145 252,145 254,143 256,145 256,146 257,147 259,147 260,148 260,149 259,150 258,150 257,151 257,152 258,151 260,151 261,150 262,150 263,149 264,149 265,150 265,152 264,153 263,153 262,154 264,154 265,153 266,153 267,154 266,155 266,156 267,157 270,157 272,159 272,161 274,161 275,162 274,163 274,165 273,166 272,165 271,166 273,168 277,168 278,169 278,171 280,171 280,170 279,169 280,168 280,167 279,166 280,165 281,165 282,166 282,168 283,169 283,170 284,171 284,173 283,174 281,174 280,175 282,175 283,176 281,178 282,178 284,180 286,180 287,181 287,185 288,185 289,186 290,185 291,185 292,184 291,183 292,182 294,182 295,183 295,184 296,185 296,186 295,187 295,188 294,189 293,189 294,189 295,188 296,189 296,191 295,192 294,191 294,192 295,192 296,191 297,191 299,193 299,194 298,195 296,195 295,194 295,195 296,196 296,197 297,197 298,198 298,199 297,200 296,200 297,201 299,199 300,199 301,200 303,200 304,201 303,202 302,202 305,202 307,204 307,205 306,206 306,207 307,207 308,208 308,212 309,213 309,215 310,215 310,214 311,213 312,213 313,214 314,214 316,216 317,215 318,215 319,216 319,218 320,219 321,219 322,220 322,221 323,222 323,225 324,226 323,227 324,228 327,228 328,229 329,229 330,230 331,230 332,229 333,230 333,231 332,232 331,232 331,234 332,235 331,236 332,235 334,235 336,237 336,238 337,238 339,240 339,241 341,241 342,242 342,243 341,244 341,245 342,245 343,246 343,247 344,247 345,248 346,247 346,246 347,245 349,247 348,248 348,249 349,250 349,251 348,252 349,253 350,252 352,254 352,255 353,255 354,254 355,254 358,257 358,258 357,259 356,259 357,259 358,258 359,259 359,260 358,261 358,262 360,262 362,264 362,268 363,267 364,267 365,268 366,267 367,267 368,268 368,271 367,272 366,271 364,271 363,270 362,270 362,271 363,272 365,272 366,273 369,273 370,272 372,272 373,273 376,273 377,274 377,275 376,276 375,276 374,275 372,275 374,277 372,279 372,280 373,280 375,282 374,283 373,283 373,284 372,285 374,283 375,283 377,285 377,286 378,286 379,285 380,286 381,286 382,287 382,289 383,288 385,288 387,290 387,293 386,294 386,295 385,296 385,297 386,298 387,298 388,299 389,298 390,298 391,299 391,301 393,303 393,304 393,302 392,301 392,299 393,298 397,298 398,299 397,300 395,300 395,301 396,301 397,300 399,302 399,307 400,308 400,311 401,311 402,312 402,313 403,313 403,312 404,311 405,312 405,314 404,315 404,316 405,316 406,317 406,319 407,319 408,320 408,321 409,321 410,320 411,320 412,321 412,322 411,323 410,323 410,324 412,324 412,321 411,320 410,320 407,317 408,316 409,316 410,315 411,316 411,317 413,319 414,319 416,321 416,322 414,324 414,325 415,326 415,327 414,328 414,329 415,329 416,330 416,331 417,332 419,332 421,334 422,334 423,335 425,335 427,337 425,339 424,339 424,340 426,342 427,342 428,343 430,341 431,342 431,344 432,345 435,345 437,347 434,350 433,350 435,352 435,353 434,354 434,355 435,354 436,354 437,355 438,355 440,357 440,358 439,359 441,361 442,361 441,360 441,359 442,358 443,358 445,360 445,362 444,363 442,363 443,364 443,365 444,366 445,366 449,370 449,371 450,371 451,370 452,370 453,371 453,373 455,375 456,375 457,376 457,378 456,379 457,379 458,380 459,380 462,383 461,384 460,384 462,384 463,385 464,385 466,387 465,388 465,389 464,390 465,391 465,392 466,393 466,394 467,395 467,396 468,396 466,394 466,393 467,392 469,394 470,394 471,395 471,396 470,397 471,397 472,398 472,399 473,400 474,400 476,402 476,407 477,408 479,408 479,407 481,405 482,406 482,408 483,409 483,410 482,411 480,411 482,411 483,412 484,412 486,414 485,415 484,415 484,416 485,415 486,415 489,418 489,419 490,420 489,421 489,422 490,423 489,424 488,424 488,426 487,427 487,428 486,429 486,430 485,431 484,430 483,430 483,431 482,432 479,432 477,434 477,435 476,436 475,436 473,438 472,438 471,439 471,440 472,441 471,442 469,442 468,443 467,443 467,444 466,445 466,446 465,447 464,447 464,448 463,449 461,449 460,450 460,451 457,454 456,454 455,455 455,457 454,458 452,458 451,459 450,459 452,461 450,463 449,462 447,462 444,465 443,465 441,467 441,468 439,470 437,470 434,473 434,474 433,475 432,475 431,476 430,476 429,477 429,478 428,479 427,479 421,485 420,485 419,486 419,487 418,488 418,489 416,491 413,491 413,492 411,494 410,494 407,497 406,497 404,499 404,500 403,501 402,501 401,500 400,501 400,502 401,502 402,503 401,504 398,504 396,506 394,506 393,507 393,509 392,510 391,509 388,512 387,512 386,513 385,513 384,514 382,514 381,515 381,516 382,517 380,519 377,519 376,520 375,520 373,522 372,522 370,524 369,524 370,525 371,525 373,527 373,528 372,529 371,528 369,528 368,527 367,528 368,529 367,530 363,530 362,531 361,531 360,532 360,533 359,534 358,534 355,537 355,540 354,541 353,541 352,540 351,540 351,541 349,543 348,543 345,546 345,548 346,549 345,550 343,550 341,552 341,553 342,553 344,555 344,556 343,557 342,556 340,556 339,557 338,557 337,558 336,558 335,559 333,559 334,560 334,561 333,562 332,561 331,561 331,562 332,563 332,564 331,565 330,565 330,566 331,567 330,568 327,568 327,570 328,571 327,572 326,572 325,573 324,572 324,571 322,573 322,574 321,575 321,576 320,577 320,578 317,581 316,581 316,582 313,585 312,585 311,586 311,587 309,589 309,590 308,591 307,591 302,596 301,596 299,598 299,600 298,601 296,601 296,603 297,604 297,605 296,606 295,606 294,605 292,607 289,607 289,608 288,609 288,610 285,613 284,613 282,615 282,616 281,617 281,618 280,619 280,621 279,622 278,622 277,623 274,623 275,624 275,625 274,626 273,626 273,627 272,628 271,627 267,631 267,632 268,633 266,635 263,635 262,636 261,636 261,637 259,639 259,643 258,644 257,643 256,643 256,644 254,646 253,646 253,647 251,649 251,651 250,652 249,652 249,655 247,657 244,657 244,658 246,658 247,659 246,660 243,660 241,662 240,662 239,663 239,666 238,667 238,668 235,671 234,671 231,674 231,675 230,676 230,678 229,679 229,681 227,683 226,683 226,684 225,685 225,686 223,688 221,688 221,690 220,691 220,693 219,694 217,694 216,693 216,697 214,699 214,702 209,707 209,708 208,709 208,710 207,711 207,712 206,713 206,714 203,717 203,719 198,724 196,724 196,725 197,726 197,727 196,728 195,728 194,729 193,729 192,730 192,731 191,732 190,732 188,734 188,735 187,736 187,742 186,743 185,742 184,742 183,743 183,744 179,748 179,749 175,753 175,755 174,756 174,757 168,763 168,765 169,766 168,767 168,768 167,769 165,767 165,766 164,767 164,769 162,771 162,772 165,772 166,773 166,774 165,775 164,775 163,776 161,774 160,774 160,775 158,777 158,778 157,779 157,780 158,781 157,782 155,782 154,783 154,785 153,786 152,785 151,786 151,787 152,788 152,789 151,790 150,789 149,789 147,791 149,793 149,794 148,795 146,795 145,796 145,799 144,800 144,801 143,802 142,802 141,803 141,804 140,805 141,806 139,808 138,808 136,810 136,811 135,812 135,814 134,815 134,816 136,818 135,819 133,819 132,818 131,819 131,822 130,823 130,824 129,825 128,824 127,825 127,826 126,827 126,831 122,835 122,837 121,838 121,839 120,840 119,840 119,842 118,843 118,844 117,845 117,846 115,848 115,850 112,853 112,857 111,858 110,858 109,859 109,860 106,863 106,866 104,868 105,869 104,870 103,870 102,871 102,873 103,874 101,876 101,877 98,880 98,881 97,882 97,887 96,888 95,888 97,890 95,892 96,893 95,894 92,894 94,894 95,895 94,896 92,896 90,898 91,899 91,900 89,902 89,903 90,904 90,905 91,905 92,906 92,907 91,908 90,908 92,910 92,915 91,916 90,915 90,914 89,913 88,913 88,914 87,915 87,916 91,916 92,917 91,918 91,919 90,920 88,920 90,922 93,922 94,921 95,921 96,922 96,925 95,926 96,926 96,923 97,922 97,921 96,920 96,919 98,917 101,920 104,920 105,919 108,919 110,921 109,922 110,922 110,920 112,918 113,918 114,919 114,920 114,918 116,916 116,915 117,914 118,914 119,915 120,914 118,914 117,913 116,913 115,912 116,911 117,911 118,910 120,912 121,911 122,911 123,910 124,910 124,908 126,906 126,905 128,903 128,902 129,901 129,900 131,898 131,897 132,896 132,894 133,893 134,893 136,891 136,889 137,888 138,888 139,887 139,884 140,883 140,880 147,873 147,871 148,870 148,869 146,869 145,868 148,865 148,863 150,861 151,861 153,859 154,859 155,858 155,857 157,855 157,854 158,853 159,853 159,852 160,851 160,850 161,849 161,848 162,847 161,846 161,845 163,843 164,843 163,843 161,841 162,840 162,839 163,838 165,838 166,839 167,838 167,837 169,835 169,834 170,833 170,832 174,828 174,827 175,826 175,823 178,820 179,820 179,817 178,816 181,813 184,813 184,810 186,808 187,809 189,807 189,806 192,803 192,802 193,801 193,800 192,799 192,798 193,797 196,797 196,795 197,794 197,793 198,792 198,790 199,789 200,790 200,788 201,787 202,787 201,786 202,785 202,782 203,781 202,780 204,778 205,778 206,777 209,777 210,776 210,774 213,771 213,770 214,769 214,768 216,766 217,766 219,764 219,762 220,761 220,760 219,759 220,758 221,758 221,757 222,756 222,754 223,753 224,754 225,754 227,752 227,750 228,749 228,748 229,747 229,746 230,745 232,745 230,743 230,742 231,741 232,742 234,742 233,741 233,740 235,738 235,736 239,732 240,732 240,731 242,729 242,728 243,727 243,726 242,725 241,725 240,724 241,723 242,723 243,722 244,722 245,721 245,720 247,718 248,718 249,717 250,717 251,716 251,715 250,714 250,713 251,712 253,712 253,710 255,708 255,706 257,704 260,704 261,703 261,702 260,702 259,701 260,700 262,700 263,699 264,699 267,696 267,693 268,692 269,692 270,691 272,691 274,689 275,689 275,688 276,687 276,686 277,685 278,686 277,685 276,685 275,686 274,686 274,687 273,688 272,688 271,689 269,687 270,686 272,686 272,685 273,684 272,683 272,682 274,680 273,680 272,679 273,678 274,678 276,676 277,676 278,677 278,680 277,681 276,681 276,682 277,682 278,681 280,681 281,682 283,680 284,680 283,679 283,678 282,678 281,679 280,678 280,677 283,674 287,674 287,673 288,672 290,672 291,671 290,670 288,670 287,671 287,672 286,673 285,672 285,668 287,666 290,666 291,667 290,668 288,668 290,668 291,667 292,667 292,665 291,664 292,663 292,662 293,661 294,662 294,664 296,664 298,662 299,662 299,660 300,659 301,659 301,658 300,657 299,658 298,658 299,658 300,659 299,660 296,660 294,658 295,657 295,656 296,655 305,655 305,654 306,653 306,652 307,651 307,650 309,648 310,649 310,648 309,647 309,646 310,645 312,645 313,644 314,644 314,643 313,644 312,644 311,643 311,641 312,640 313,640 314,639 315,640 315,641 316,641 319,638 320,638 320,637 321,636 322,636 322,635 323,634 324,634 324,632 326,630 328,630 328,628 327,627 328,626 329,626 329,625 330,624 331,624 331,622 332,621 333,621 333,617 334,616 335,617 335,618 335,617 337,615 338,616 339,615 337,613 337,612 338,611 341,611 342,610 342,609 341,608 341,607 338,604 339,603 340,603 341,604 344,604 346,606 345,607 346,607 347,606 347,605 348,604 349,604 353,600 353,599 354,598 354,597 352,595 355,592 356,592 357,593 357,592 358,591 358,590 362,586 363,586 366,583 366,582 365,583 364,582 364,579 363,578 363,577 365,575 366,575 367,576 368,575 369,576 369,577 368,578 367,578 367,579 368,578 369,578 370,577 371,577 372,576 372,574 370,572 371,571 372,571 373,572 374,572 374,571 373,570 374,569 377,569 378,568 379,568 379,566 380,565 379,566 378,566 377,567 376,566 376,563 377,562 378,563 382,563 382,562 383,561 384,562 384,563 385,563 385,562 384,562 383,561 383,560 386,557 388,559 389,558 390,558 391,557 392,557 395,554 395,552 397,550 397,549 398,548 399,549 400,549 403,546 404,547 404,546 405,545 406,545 409,542 408,542 407,541 410,538 411,538 413,540 413,539 415,537 416,537 417,536 417,534 418,533 419,533 420,532 422,532 422,531 424,529 424,528 425,527 427,527 428,526 428,524 429,523 430,524 434,524 434,523 433,523 432,522 432,521 436,517 437,518 437,519 438,520 440,518 441,518 441,517 444,514 445,514 446,513 446,512 445,511 445,509 446,508 447,508 448,509 448,510 449,510 449,509 448,508 449,507 450,507 451,506 452,506 452,503 454,501 456,501 457,502 457,501 459,499 460,499 461,498 463,498 463,496 465,494 465,493 469,489 471,489 473,487 473,486 475,484 476,484 476,482 475,481 477,479 478,480 478,481 480,481 484,477 484,475 485,474 484,473 485,472 490,472 490,471 493,468 496,468 496,467 497,466 498,466 499,465 499,460 500,459 501,459 502,460 503,460 503,457 504,456 505,456 508,453 509,453 510,452 511,453 512,452 511,451 512,450 513,450 515,452 516,452 517,451 518,451 519,452 520,452 520,451 522,449 523,450 523,452 522,453 522,455 523,454 524,454 525,455 526,455 527,456 527,457 529,459 531,459 532,460 532,462 533,462 534,463 534,465 535,466 535,468 536,468 537,467 538,468 538,470 541,473 543,471 544,472 544,473 543,474 543,475 544,476 544,477 546,479 548,479 549,480 549,481 548,482 548,483 551,483 551,482 552,481 554,481 555,482 557,482 558,483 558,486 557,487 554,484 553,484 552,485 551,485 553,485 555,487 556,487 557,488 557,492 561,492 562,493 562,496 563,497 563,499 564,500 565,499 566,500 568,500 569,501 570,501 571,502 571,503 570,504 571,505 571,506 573,506 574,507 574,509 578,509 579,510 579,512 578,513 577,513 579,513 581,515 581,516 583,516 584,517 584,518 585,518 587,520 587,521 588,522 588,523 589,524 589,525 590,526 590,527 591,528 592,528 593,527 595,529 594,530 592,530 594,530 596,532 595,533 595,534 596,534 598,536 598,537 599,536 600,536 601,537 600,538 603,538 604,539 604,541 605,542 605,543 606,544 605,545 605,547 606,548 606,549 607,548 608,549 611,549 612,550 612,554 613,553 614,553 616,555 616,557 615,558 616,558 617,559 618,559 619,558 620,559 620,561 621,561 621,560 622,559 624,561 624,563 623,564 623,565 625,565 626,566 626,567 625,568 623,568 626,571 627,571 628,572 628,573 631,573 632,574 632,576 631,577 631,579 633,579 635,581 635,582 638,585 638,584 637,583 638,582 639,582 640,583 640,586 641,587 643,587 644,588 645,588 647,590 647,592 648,592 650,594 649,595 649,596 650,597 651,597 653,599 653,600 654,601 654,603 657,606 658,606 658,605 659,604 662,604 663,605 659,609 658,609 659,609 660,608 661,608 662,609 662,611 663,610 665,610 666,611 666,616 667,615 669,617 669,619 670,620 670,621 671,621 672,620 673,621 673,623 675,623 674,622 674,621 675,620 676,621 678,621 679,622 679,623 680,624 679,625 679,627 678,628 677,628 680,628 681,629 681,630 682,631 680,633 680,635 681,635 682,634 683,635 683,638 684,638 685,639 687,639 688,640 688,641 687,642 686,642 688,644 689,643 690,643 691,644 690,645 690,646 691,647 691,648 692,649 692,650 693,650 696,653 696,655 698,653 699,654 701,654 702,655 702,659 703,659 704,660 704,661 703,662 703,667 704,667 705,668 706,668 708,670 708,671 709,672 710,672 711,673 714,673 715,674 715,676 716,677 716,679 717,679 718,680 718,681 720,681 721,682 721,683 724,686 724,690 726,692 725,693 726,694 727,693 728,693 730,695 730,696 731,697 731,698 730,699 729,698 728,698 729,699 731,699 732,698 733,699 733,700 735,702 735,704 737,706 741,706 742,707 741,708 741,710 742,710 743,711 743,712 744,713 744,717 745,718 745,719 746,719 746,718 745,717 745,716 746,715 746,714 747,713 748,713 749,714 750,714 751,715 750,716 748,716 749,716 750,717 750,718 749,719 749,720 750,720 751,721 751,723 750,724 752,726 752,728 753,729 753,726 754,725 755,725 756,726 756,728 757,728 758,729 757,730 759,732 760,732 761,733 761,734 760,735 759,735 760,735 761,736 763,736 765,738 766,737 768,737 770,739 768,741 768,743 769,744 767,746 767,747 768,748 769,748 770,749 770,750 771,751 772,751 773,752 774,752 777,755 776,756 776,757 777,757 777,754 778,753 779,753 780,754 780,756 783,756 784,757 784,759 783,760 781,760 780,761 780,762 781,762 782,761 783,761 784,762 784,764 783,765 782,764 781,764 781,765 782,766 782,768 783,768 783,767 782,766 783,765 784,765 785,766 785,769 787,769 788,770 788,771 790,771 791,772 789,774 788,773 788,774 790,776 791,775 793,777 792,778 792,780 793,779 795,779 796,780 796,781 797,782 797,783 798,782 798,781 799,780 801,780 802,781 801,782 802,783 801,784 801,786 803,784 804,785 804,786 801,789 804,792 803,793 806,793 807,794 808,794 809,795 809,796 810,796 811,795 813,797 813,798 814,799 814,800 813,801 812,801 811,802 813,802 814,801 815,801 816,802 816,803 817,802 818,803 818,804 817,805 816,805 817,806 818,806 819,807 819,806 818,805 819,804 819,802 820,801 821,802 821,804 822,804 824,806 822,808 822,809 821,810 822,810 823,811 822,812 822,815 823,816 825,814 827,816 827,817 826,818 827,819 827,821 831,821 833,823 833,824 832,825 831,824 831,825 833,827 832,828 834,830 834,831 835,830 835,829 836,828 837,828 838,827 840,829 840,833 841,833 843,835 843,836 842,837 844,839 844,843 845,842 845,839 844,839 843,838 844,837 849,837 851,839 852,839 853,840 853,841 852,842 851,842 851,843 853,845 853,847 855,847 856,848 856,850 857,851 857,850 858,849 861,849 862,850 862,851 860,853 860,854 861,855 859,857 859,859 860,859 860,857 861,856 862,857 862,861 861,862 861,863 862,863 863,864 863,865 864,865 864,864 863,863 863,861 865,859 866,860 869,860 870,861 869,862 867,862 867,864 868,865 867,866 867,867 869,869 868,870 868,871 868,870 869,869 870,869 870,868 871,867 872,867 873,868 873,872 871,874 872,874 873,873 874,873 876,875 876,876 875,877 874,876 872,876 872,877 873,876 874,876 877,879 877,881 879,879 880,879 881,880 881,881 880,882 880,883 881,883 882,884 881,885 881,886 882,887 883,887 884,886 885,887 885,889 886,889 885,888 885,887 886,886 887,886 888,887 888,889 890,887 891,887 893,889 894,888 895,888 896,889 896,891 895,892 893,892 893,896 897,900 898,900 899,901 899,902 900,903 901,903 903,905 903,906 904,907 904,908 905,909 906,909 907,908 908,908 909,909 908,910 908,912 909,912 911,914 911,916 912,917 913,917 914,918 915,917 916,917 917,918 919,918 920,919 920,921 921,922 922,921 923,922 923,924 924,925 924,927 925,927 926,926 929,926 930,927 930,928 929,929 926,929 929,932 929,933 932,936 933,935 934,935 936,937 937,936 940,936 941,935 943,935 943,933 944,932 945,933 945,934 946,935 947,935 948,934 950,934 951,935 951,936 950,937 949,937 949,938 948,939 949,939 949,938 951,936 952,936 953,935 952,935 951,934 952,933 955,933 956,934 956,936 957,935 957,934 958,933 959,933 960,932 961,932 962,933 963,933 963,932 964,931 964,929 965,928 966,928 965,927 967,925 968,926 968,927 969,927 971,925 974,925 975,924 975,921 974,921 971,918 971,916 970,915 970,914 971,913 972,913 973,914 973,915 974,915 974,913 975,912 976,913 977,913 978,914 979,913 980,913 979,912 978,912 977,911 977,909 979,907 977,905 977,904 978,903 979,903 977,901 977,900 978,899 977,898 977,896 974,893 974,890 975,889 974,890 973,889 973,884 972,883 970,883 968,881 968,879 967,878 967,876 966,876 965,875 965,874 964,874 963,875 963,878 964,879 964,880 963,881 961,881 960,880 960,877 959,876 960,875 960,873 959,872 961,870 961,867 954,860 954,858 953,857 953,856 950,856 948,854 950,852 947,849 947,848 946,848 945,849 944,848 944,847 943,846 944,845 944,844 945,843 945,842 944,841 944,840 943,841 942,841 941,840 941,839 940,838 941,837 941,836 939,834 939,831 937,829 935,829 934,828 933,829 934,829 936,831 936,832 935,833 934,832 933,833 931,831 930,831 929,830 929,829 930,828 929,827 929,826 928,825 928,824 929,823 930,824 933,824 933,823 932,824 930,822 931,821 929,819 928,819 927,818 924,818 923,817 922,817 919,814 921,812 922,812 922,811 921,810 921,809 920,809 919,808 919,807 918,806 918,805 917,805 916,804 916,802 915,801 915,800 914,801 914,802 913,803 912,803 910,801 909,801 908,800 908,799 906,797 907,796 907,795 906,795 904,793 904,792 899,792 898,791 898,789 900,787 901,787 901,786 900,786 899,785 894,785 893,784 894,783 894,780 893,779 893,778 892,778 891,779 890,778 890,777 889,776 887,776 888,777 888,778 887,779 886,779 885,778 885,777 884,777 883,776 883,775 884,774 885,774 882,774 879,771 880,770 880,769 879,768 879,766 878,765 876,765 875,764 875,763 874,762 874,759 873,759 873,760 872,761 871,761 870,760 870,759 868,759 867,758 867,757 866,756 866,755 867,754 865,752 866,751 866,750 863,750 863,752 861,754 860,753 858,753 857,752 857,751 858,750 859,750 860,749 860,748 861,747 862,748 863,748 863,747 857,747 856,746 856,745 857,744 857,743 858,742 858,741 857,741 855,739 855,736 854,735 853,735 852,734 853,733 850,730 850,729 851,728 847,728 847,731 848,732 847,733 846,733 844,731 845,730 845,729 844,729 841,726 841,725 842,724 843,724 844,723 844,722 843,722 840,719 840,718 839,717 839,716 838,716 838,717 837,718 836,718 835,717 835,716 834,715 835,714 835,713 834,713 832,715 832,716 831,717 830,717 829,716 829,715 831,713 830,712 831,711 831,710 830,709 830,708 829,707 828,707 827,708 825,706 826,705 827,705 828,704 828,703 829,702 828,702 826,700 824,700 823,699 823,698 824,697 823,698 822,698 821,697 820,697 819,696 819,693 818,692 818,691 817,690 817,689 816,689 815,688 815,686 816,685 815,685 814,684 813,684 812,685 811,685 810,684 811,683 811,681 810,680 809,680 808,679 806,679 805,678 805,677 804,676 804,675 806,673 804,673 801,670 801,668 802,667 802,666 802,667 800,669 798,669 797,668 797,667 796,666 796,665 795,664 795,662 794,661 794,659 794,660 793,661 792,661 791,660 791,659 790,658 790,656 789,656 788,657 787,657 787,658 786,659 783,656 785,654 784,654 783,653 785,651 787,651 785,651 784,650 784,649 783,648 783,647 781,647 779,645 776,645 775,644 774,644 773,643 773,640 774,639 773,639 769,635 769,634 767,634 765,632 765,631 766,630 766,629 763,626 762,626 760,624 760,622 757,622 756,621 756,618 755,617 755,616 753,614 753,612 752,612 751,611 752,610 749,610 748,609 745,609 744,608 744,607 742,605 743,604 744,604 744,603 745,602 747,602 748,603 748,604 749,605 749,606 750,606 750,604 749,603 748,603 747,602 745,602 743,600 743,599 741,597 740,597 739,596 740,595 741,595 742,594 741,593 741,592 740,591 740,590 737,590 736,589 736,586 733,583 734,582 732,582 730,580 730,579 729,579 728,578 727,578 726,577 724,577 723,576 723,575 725,573 726,573 723,573 722,572 721,572 720,571 721,570 722,570 722,569 721,568 721,567 719,567 718,568 717,568 716,567 716,565 713,565 712,564 712,565 711,566 708,566 707,565 707,564 708,563 709,563 710,562 713,562 713,561 710,561 709,562 708,561 708,557 707,556 707,555 708,554 709,554 707,554 706,553 707,552 707,550 704,550 703,549 703,548 701,548 698,551 696,549 696,547 695,547 694,546 696,544 695,543 696,542 698,542 697,541 696,541 695,540 692,540 691,539 692,538 693,538 694,537 694,536 693,535 693,533 691,531 688,531 687,530 686,531 685,531 684,530 684,529 683,529 682,528 682,527 680,525 682,523 682,521 680,519 680,518 679,518 677,520 676,520 675,519 674,519 673,518 673,517 674,516 675,517 676,517 675,516 675,515 676,514 676,513 675,512 672,512 671,511 670,511 669,510 669,508 670,507 671,508 671,509 672,509 672,508 668,504 667,504 665,502 664,502 661,499 661,497 660,498 660,499 661,500 659,502 658,502 657,501 657,500 656,499 656,497 654,497 653,496 653,495 654,494 655,494 655,493 656,492 657,492 653,492 652,493 651,492 651,490 650,489 650,488 651,487 650,486 651,485 651,484 650,484 649,483 648,484 646,482 646,481 647,480 646,479 646,477 645,477 643,475 642,475 637,470 637,468 635,468 634,467 633,468 630,468 629,467 629,466 627,464 628,463 630,463 631,462 631,461 630,460 626,460 625,459 626,458 624,456 624,455 623,454 624,453 622,451 621,451 620,450 620,449 619,448 618,448 616,446 616,444 615,443 615,439 612,439 611,440 610,440 609,441 606,438 606,436 607,435 608,436 608,435 607,434 605,436 604,436 603,435 602,435 601,434 601,432 602,431 603,432 604,432 605,431 604,430 604,429 596,421 595,421 594,420 594,419 592,417 592,416 591,415 590,415 589,416 587,416 586,415 586,413 585,413 583,411 583,410 582,409 580,409 579,408 579,407 581,405 583,405 583,403 584,402 584,401 587,398 588,398 587,397 589,395 589,393 590,392 590,391 592,389 593,390 594,389 595,389 597,387 597,386 598,385 602,385 602,384 603,383 603,382 604,381 605,382 606,382 606,381 607,380 609,380 608,380 607,379 607,377 608,376 608,374 609,373 613,373 613,372 612,371 612,370 614,368 617,368 618,367 619,368 619,367 621,365 622,366 622,365 621,364 621,362 623,360 623,358 624,357 626,357 627,358 626,359 626,360 625,361 625,363 624,364 624,365 625,365 626,364 626,363 628,361 627,361 626,360 627,359 628,359 629,358 630,358 632,356 631,355 631,354 632,353 632,352 633,351 634,352 634,353 635,352 636,353 637,353 637,351 638,350 639,351 639,350 641,348 642,349 643,348 644,348 644,344 645,343 647,343 646,342 646,340 647,339 650,339 650,338 652,336 653,336 654,337 653,338 653,339 654,339 654,337 655,336 656,336 656,334 657,333 659,333 659,332 660,331 662,331 663,330 664,330 664,328 665,327 666,327 668,325 669,325 667,323 668,322 670,322 671,323 672,323 673,322 674,322 674,320 675,319 674,318 674,316 675,315 676,316 677,316 678,317 679,317 679,316 680,315 681,316 682,316 682,315 685,312 686,313 687,312 687,311 688,310 688,309 691,306 693,306 694,307 694,306 695,305 696,305 697,306 699,304 700,304 700,303 699,302 701,300 702,301 707,301 710,298 710,296 711,295 711,294 712,293 713,293 714,294 716,292 717,292 718,291 720,291 720,290 719,289 719,288 720,287 721,288 721,285 722,284 723,285 724,285 726,287 728,287 727,286 728,285 731,285 732,284 732,283 731,282 731,280 732,279 737,279 738,280 738,277 739,276 739,275 740,274 741,274 742,275 745,275 745,272 746,271 746,270 747,269 749,271 750,270 751,270 751,267 752,266 753,267 754,267 754,266 755,265 756,265 757,264 758,264 760,262 760,261 761,260 762,260 766,256 767,256 768,255 768,254 769,253 770,253 770,252 774,248 773,248 772,247 772,245 773,244 774,244 775,245 777,245 778,244 778,243 779,242 779,241 777,241 776,240 776,239 777,238 778,238 778,237 780,235 781,236 781,237 782,237 783,236 783,235 782,234 783,233 786,233 786,232 789,229 789,228 788,227 789,226 790,226 792,224 794,224 794,222 797,219 799,219 799,217 800,216 801,216 804,213 805,213 805,210 806,209 807,210 808,210 806,208 806,207 807,206 808,206 809,205 809,202 810,201 812,201 813,202 815,202 816,201 817,202 818,202 818,201 819,200 819,198 818,197 820,195 822,195 822,193 823,192 824,192 825,193 826,193 826,192 825,191 827,189 830,189 830,188 831,187 834,187 834,185 833,184 834,183 835,183 835,181 836,180 837,181 838,181 840,179 840,178 841,177 843,177 844,178 845,178 845,177 846,176 847,176 847,173 848,172 849,172 848,172 847,171 849,169 852,172 852,171 854,169 854,167 855,166 856,166 857,167 859,167 859,165 862,162 864,162 863,162 862,161 862,160 864,158 866,160 868,158 869,158 870,157 868,155 869,154 871,154 873,156 874,156 875,155 876,156 877,156 875,154 876,153 878,153 877,152 876,152 875,151 875,150 873,150 872,149 870,149 868,147 867,148 866,148 866,150 865,151 864,151 863,150 864,149 864,148 862,146 861,146 860,145 857,145 856,144 855,145 854,145 853,146 852,145 851,145 849,147 849,149 848,150 849,151 848,152 847,152 846,151 846,150 846,151 845,152 844,152 842,150 842,154 840,156 839,155 840,156 841,156 842,157 842,158 843,159 842,160 839,160 838,159 837,159 836,160 835,160 833,158 828,158 828,159 827,160 828,161 828,162 829,163 829,164 828,165 826,163 823,163 824,164 824,165 825,166 825,167 824,168 822,166 821,167 819,167 817,165 818,166 817,167 814,167 814,168 815,168 816,169 816,172 815,173 814,173 812,171 812,168 810,170 811,171 810,172 809,172 809,176 808,177 807,176 806,176 806,178 805,179 806,180 806,181 805,182 803,180 803,173 802,173 800,175 799,175 799,176 800,177 800,179 799,180 798,180 798,182 797,183 796,183 795,182 794,182 793,183 792,183 792,184 793,185 792,186 791,186 789,184 788,184 788,185 789,186 787,188 785,188 785,190 784,191 784,192 783,193 782,193 781,192 781,194 782,195 782,196 781,197 779,195 778,196 778,197 779,198 778,199 777,199 776,200 775,200 775,201 774,202 774,204 773,205 771,203 769,205 769,206 770,207 770,209 769,210 768,210 768,212 769,213 767,215 765,213 766,212 766,209 765,209 765,212 764,213 762,213 761,214 761,215 760,216 758,216 757,217 757,218 758,219 758,220 757,221 757,222 755,224 753,224 752,223 751,224 750,224 750,225 749,226 749,227 747,229 746,229 746,230 744,232 743,232 743,233 744,234 744,235 745,236 743,238 741,238 740,237 738,237 737,236 737,235 735,237 735,239 734,240 734,241 735,242 734,243 734,244 735,245 733,247 732,247 731,246 729,246 728,245 729,244 732,244 732,243 731,243 730,244 726,244 724,246 724,247 723,248 723,249 722,250 719,250 720,250 721,251 722,251 722,250 723,249 725,251 724,252 724,253 723,254 722,254 721,253 714,253 711,256 709,256 709,257 710,258 709,259 708,259 707,258 707,257 704,257 704,260 703,261 702,261 703,261 705,263 704,264 704,265 705,266 705,268 704,269 700,265 700,263 699,262 699,261 698,261 696,263 695,263 691,267 689,267 689,268 688,269 687,268 686,268 684,270 684,271 683,272 681,272 680,273 678,273 677,272 675,274 674,274 674,276 673,277 671,277 671,279 670,280 668,280 667,281 666,281 662,285 661,285 661,286 662,287 662,288 661,289 660,289 659,290 658,289 657,289 657,290 653,294 652,294 652,296 651,297 650,296 650,294 649,294 649,296 648,297 647,297 647,301 646,302 646,303 645,304 644,304 643,303 641,303 642,304 641,305 637,305 635,307 634,307 632,309 632,310 633,311 631,313 630,312 629,312 628,313 628,314 627,315 626,315 625,316 625,318 624,319 621,319 621,322 619,324 618,323 617,323 615,325 614,325 614,327 613,328 612,328 611,329 611,330 612,330 613,331 613,333 612,334 611,334 610,333 610,332 609,331 608,331 606,333 605,333 605,334 606,335 605,336 604,336 603,335 598,340 597,340 595,342 596,343 595,344 593,344 593,347 594,348 593,349 593,350 592,351 585,351 584,352 583,352 583,353 581,355 579,355 577,357 577,358 578,359 577,360 576,360 575,359 575,360 573,362 573,365 572,366 574,368 573,369 572,369 570,367 569,367 568,368 567,368 566,367 565,368 563,368 560,371 560,372 561,373 559,375 558,374 557,374 556,375 555,375 555,376 554,377 553,377 552,378 551,377 551,376 552,375 553,375 553,372 552,371 549,371 548,370 547,370 546,369 545,369 544,368 544,366 541,363 542,362 542,361 540,361 539,360 538,360 533,355 533,352 532,352 531,353 532,353 533,354 531,356 530,356 528,354 528,353 529,352 529,350 528,350 527,349 528,348 528,347 527,346 526,346 525,345 524,346 523,345 523,343 519,339 520,338 519,337 518,337 514,333 515,332 513,330 513,329 512,328 509,328 507,326 507,325 506,325 505,324 505,323 501,319 500,319 499,318 499,317 500,316 501,316 498,313 498,312 495,312 494,311 493,311 492,310 492,308 491,307 491,303 490,302 484,302 483,301 483,300 484,299 485,299 486,298 484,296 484,295 483,295 483,296 481,298 480,297 480,295 481,294 480,293 479,293 478,292 478,291 476,289 471,289 469,287 469,286 470,285 469,284 469,283 468,283 467,282 467,281 466,281 465,280 465,279 466,278 467,278 469,280 469,279 468,278 468,277 463,277 461,275 460,275 459,274 460,273 459,273 458,272 458,269 455,269 454,268 454,267 456,265 455,265 454,266 453,265 453,263 451,261 450,261 449,260 447,260 445,258 445,253 444,253 443,252 444,251 443,251 442,252 442,253 440,255 438,253 438,252 439,251 439,247 438,246 438,245 437,245 435,243 435,242 434,241 433,241 432,240 432,238 431,238 429,236 427,236 426,235 426,234 425,233 424,233 423,232 423,230 422,229 421,229 420,228 420,226 418,224 418,223 417,222 416,223 415,223 413,221 413,220 412,219 411,219 410,220 409,220 408,219 408,215 407,214 407,212 404,212 403,211 402,211 401,210 401,209 402,208 400,208 399,207 399,206 397,204 395,204 394,203 394,201 391,198 391,197 389,197 387,195 386,195 385,194 385,193 383,191 383,190 380,190 378,188 378,186 377,185 377,182 376,181 376,180 375,181 373,181 371,179 371,177 370,177 368,175 368,174 367,174 366,173 368,171 369,172 369,171 366,171 365,170 364,170 361,167 361,166 360,165 360,164 359,164 358,163 356,163 355,162 356,161 357,161 357,160 356,159 355,160 355,161 354,162 353,162 352,161 352,158 350,156 348,156 347,155 348,154 346,152 343,152 341,150 340,150 338,148 336,148 335,147 335,146 333,144 333,143 331,141 331,140 329,140 328,139 327,139 325,137 324,137 322,135 321,135 320,134 319,134 318,133 318,130 317,130 316,129 315,130 313,128 311,128 310,129 306,125 307,124 307,122 306,122 304,124 303,123 303,121 304,120 305,120 303,120 303,122 302,123 301,122 300,122 299,121 300,120 299,119 300,118 300,117 299,117 297,115 296,115 295,114 294,114 293,115 292,115 291,116 290,116 288,114 287,114 286,113 286,112 285,112 284,111 284,109 283,110 280,110 279,111 278,111 277,110 277,108 278,107 278,106 277,105 276,105 275,106 274,106 273,105 273,100 272,100 271,101 270,101 269,100 269,99 270,98 269,98 268,99 267,98 266,98 264,96 263,96 262,95 258,95 257,94 258,93 258,92 256,92 255,91 256,90 256,89 255,89 254,88 252,88 251,87 251,85 253,83 253,82 252,83 251,83 249,85 248,85 247,84 247,83 245,83 244,82 243,82 242,81 239,81 237,79 237,78 235,76 233,76 232,75 230,75 228,73 228,72 227,72 226,73 224,71 223,72 223,73 222,74 221,74 221,75 220,76 219,76 218,75 218,74 220,72 220,71 221,70 222,70 223,69 224,69 224,68 220,68 219,69 218,68" stroke="blue" stroke-width="10" /><polyline fill="none" points="206,68 207,68" stroke="blue" stroke-width="10" /><polyline fill="none" points="191,68 191,70 190,71 192,69 193,69 192,68" stroke="blue" stroke-width="10" /><polyline fill="none" points="186,66 187,67 188,67 187,67" stroke="blue" stroke-width="10" /><polyline fill="none" points="208,64 207,65 206,65 207,66 209,66 208,65" stroke="blue" stroke-width="10" /><polyline fill="none" points="191,63 190,64 190,65 191,64" stroke="blue" stroke-width="10" /><polyline fill="none" points="193,62 194,62" stroke="blue" stroke-width="10" /><polyline fill="none" points="199,60 199,61 200,61 201,62 200,63 199,63 198,64 197,64 196,65 196,66 197,67 201,67 201,65 200,64 200,63 201,62 202,62 200,60" stroke="blue" stroke-width="10" /><polyline fill="none" points="190,57 189,58 188,58 188,60 189,60 190,59" stroke="blue" stroke-width="10" /><polyline fill="none" points="196,55 195,56 195,58 194,59 195,59 196,58 197,58 198,57 199,57 200,58 201,57 203,57 202,57 201,56 200,56 199,55" stroke="blue" stroke-width="10" /><polyline fill="none" points="183,50 183,51" stroke="blue" stroke-width="10" /></svg>